<?xml version="1.0" encoding="UTF-8" standalone="no"?>
<!DOCTYPE svg PUBLIC "-//W3C//DTD SVG 1.1//EN" "http://www.w3.org/Graphics/SVG/1.1/DTD/svg11.dtd">
<svg width="100%" height="100%" viewBox="0 0 1551 1846" version="1.1" xmlns="http://www.w3.org/2000/svg" xmlns:xlink="http://www.w3.org/1999/xlink" xml:space="preserve" xmlns:serif="http://www.serif.com/" style="fill-rule:evenodd;clip-rule:evenodd;stroke-linejoin:round;stroke-miterlimit:2;">
    <g transform="matrix(1,0,0,1,-493.698,-866.224)">
        <g>
            <g transform="matrix(2.38528,0,0,2.06903,-997.398,-58.2501)">
                <g transform="matrix(600,0,0,600,581.178,876.969)">
                    <path d="M0.073,-0L0.073,-0.716L0.168,-0.716L0.168,-0.084L0.521,-0.084L0.521,-0L0.073,-0Z" style="fill:rgb(122,122,122);fill-rule:nonzero;"/>
                </g>
            </g>
            <g transform="matrix(2.06903,0,0,2.06903,-874.723,-835.529)">
                <g transform="matrix(600,0,0,600,615.094,1713.85)">
                    <path d="M0.077,-0L0.077,-0.716L0.324,-0.716C0.379,-0.716 0.422,-0.712 0.451,-0.706C0.492,-0.696 0.527,-0.679 0.556,-0.654C0.594,-0.622 0.622,-0.582 0.641,-0.532C0.66,-0.482 0.669,-0.426 0.669,-0.362C0.669,-0.307 0.663,-0.259 0.65,-0.217C0.637,-0.175 0.621,-0.14 0.601,-0.113C0.581,-0.085 0.559,-0.064 0.536,-0.048C0.512,-0.032 0.484,-0.02 0.45,-0.012C0.417,-0.004 0.379,-0 0.335,-0L0.077,-0ZM0.172,-0.084L0.325,-0.084C0.372,-0.084 0.409,-0.089 0.436,-0.098C0.463,-0.106 0.484,-0.119 0.5,-0.135C0.522,-0.157 0.54,-0.187 0.552,-0.225C0.565,-0.263 0.571,-0.309 0.571,-0.363C0.571,-0.438 0.559,-0.496 0.534,-0.536C0.51,-0.576 0.48,-0.603 0.445,-0.617C0.419,-0.626 0.379,-0.631 0.322,-0.631L0.172,-0.631L0.172,-0.084Z" style="fill:rgb(122,122,122);fill-rule:nonzero;"/>
                </g>
            </g>
            <g transform="matrix(2.06903,0,0,2.06903,121.999,-1425.07)">
                <g transform="matrix(600,0,0,600,530.168,1537.58)">
                    <path d="M0.073,-0L0.073,-0.716L0.342,-0.716C0.396,-0.716 0.44,-0.708 0.473,-0.694C0.506,-0.68 0.532,-0.657 0.551,-0.627C0.57,-0.597 0.579,-0.566 0.579,-0.533C0.579,-0.502 0.571,-0.473 0.554,-0.446C0.538,-0.419 0.513,-0.397 0.479,-0.381C0.522,-0.368 0.556,-0.347 0.579,-0.316C0.602,-0.285 0.614,-0.249 0.614,-0.208C0.614,-0.174 0.607,-0.143 0.592,-0.114C0.578,-0.085 0.561,-0.063 0.54,-0.047C0.519,-0.032 0.493,-0.02 0.461,-0.012C0.43,-0.004 0.392,-0 0.346,-0L0.073,-0ZM0.168,-0.415L0.323,-0.415C0.365,-0.415 0.395,-0.418 0.413,-0.423C0.437,-0.431 0.455,-0.442 0.467,-0.459C0.48,-0.476 0.486,-0.496 0.486,-0.521C0.486,-0.545 0.48,-0.566 0.469,-0.584C0.457,-0.602 0.441,-0.615 0.42,-0.621C0.399,-0.628 0.362,-0.631 0.311,-0.631L0.168,-0.631L0.168,-0.415ZM0.168,-0.084L0.346,-0.084C0.377,-0.084 0.398,-0.086 0.411,-0.088C0.432,-0.092 0.451,-0.098 0.465,-0.107C0.48,-0.117 0.492,-0.13 0.501,-0.147C0.511,-0.165 0.516,-0.185 0.516,-0.208C0.516,-0.234 0.509,-0.257 0.495,-0.277C0.481,-0.297 0.462,-0.311 0.438,-0.318C0.414,-0.326 0.379,-0.331 0.333,-0.331L0.168,-0.331L0.168,-0.084Z" style="fill:rgb(122,122,122);fill-rule:nonzero;"/>
                </g>
            </g>
            <g transform="matrix(2.06903,0,0,2.06903,-2099.13,-317.937)">
                <g transform="matrix(600,0,0,600,1603.68,1463.69)">
                    <path d="M0.073,-0L0.073,-0.716L0.168,-0.716L0.168,-0.361L0.523,-0.716L0.652,-0.716L0.352,-0.426L0.665,-0L0.54,-0L0.285,-0.362L0.168,-0.248L0.168,-0L0.073,-0Z" style="fill:rgb(122,122,122);fill-rule:nonzero;"/>
                </g>
            </g>
        </g>
        <g transform="matrix(3.53144,0,0,4.27888,-4669.12,-2563.37)">
            <g transform="matrix(600,0,0,600,1503.49,1232.77)">
                <path d="M0.373,-0L0.285,-0L0.285,-0.56C0.264,-0.54 0.236,-0.52 0.201,-0.5C0.167,-0.479 0.136,-0.464 0.109,-0.454L0.109,-0.539C0.158,-0.562 0.201,-0.59 0.238,-0.623C0.275,-0.656 0.301,-0.688 0.316,-0.719L0.373,-0.719L0.373,-0Z" style="fill:rgb(255,0,22);fill-rule:nonzero;"/>
            </g>
        </g>
    </g>
</svg>
